<?xml version="1.0" encoding="UTF-8"?>
<svg id="Ebene_2" xmlns="http://www.w3.org/2000/svg" version="1.1" xmlns:xlink="http://www.w3.org/1999/xlink" viewBox="0 0 257 257">
  <!-- Generator: Adobe Illustrator 30.3.0, SVG Export Plug-In . SVG Version: 2.1.3 Build 182)  -->
  <defs>
    <style>
      .st0 {
        fill: #fff;
      }

      .st1 {
        display: none;
        fill: url(#Unbenannter_Verlauf_106);
      }

      .st2 {
        fill: #4e342e;
      }
    </style>
    <radialGradient id="Unbenannter_Verlauf_106" data-name="Unbenannter Verlauf 106" cx="128.5" cy="-380.5" fx="128.5" fy="-380.5" r="128.5" gradientTransform="translate(0 -252) scale(1 -1)" gradientUnits="userSpaceOnUse">
      <stop offset="0" stop-color="#4e342e"/>
      <stop offset=".8" stop-color="#4e342e" stop-opacity=".4"/>
      <stop offset=".9" stop-color="#4e342e"/>
      <stop offset="1" stop-color="#4e342e" stop-opacity="0"/>
    </radialGradient>
  </defs>
  <g id="Ebene_1-2">
    <g>
      <circle class="st1" cx="128.5" cy="128.5" r="128.5"/>
      <circle class="st2" cx="128.5" cy="128.5" r="100"/>
      <g>
        <path class="st0" d="M128.5,217.6c-49.2,0-89.1-40-89.1-89.1s40-89.1,89.1-89.1,89.1,40,89.1,89.1-40,89.1-89.1,89.1ZM128.5,42.4c-47.5,0-86.1,38.6-86.1,86.1s38.6,86.1,86.1,86.1,86.1-38.6,86.1-86.1-38.6-86.1-86.1-86.1Z"/>
        <path class="st0" d="M128.5,210.6c-45.3,0-82.1-36.8-82.1-82.1s36.8-82.1,82.1-82.1,82.1,36.8,82.1,82.1-36.8,82.1-82.1,82.1ZM128.5,47.4c-44.7,0-81.1,36.4-81.1,81.1s36.4,81.1,81.1,81.1,81.1-36.4,81.1-81.1-36.4-81.1-81.1-81.1Z"/>
      </g>
      <path class="st0" d="M189.9,137.8c-4.2-3.3-8.4-3.4-13.4-1.8.3-3,.2-4.9.2-4.9h-95.3s-.6,21.4,11.3,37.6c11.9,16.3,22.7,13.4,23.6,19.9h25.5c.5-3.7,4.2-4.4,9.4-7.2,1.2,2.5,4.6,4.2,7.6,1.6,1.9-1.7-3.1.4-2.3-3.5s16.9-12.7,24.6-16.9c17-9.1,13.4-21.3,8.8-24.8h0ZM167.8,165c4.3-7.2,6.5-15,7.7-21.3.1-.3.5-.3,1,0,.9-.2.5-1.5,1-2.3,1.9-1.7,5.3-3.1,8.9-.8s4,10.6-3.7,16.7-10,7.1-13.1,8.4-2-.3-1.7-.7ZM123.3,149.5c1.3,0,2.4.2,3.4.7s1.7,1.3,2.3,2.3c.6,1.1.8,2.5.8,4.2s-.3,3.2-.8,4.2c-.6,1.1-1.3,1.8-2.3,2.3s-2.1.7-3.4.7-2.4-.2-3.4-.7-1.8-1.2-2.3-2.3-.8-2.5-.8-4.2.3-3.2.8-4.2,1.3-1.8,2.3-2.3,2.1-.7,3.4-.7ZM123.3,150c-.7,0-1.3.5-1.8,1.6s-.7,2.8-.7,5.2.2,4.1.7,5.1,1.1,1.6,1.8,1.6,1.3-.5,1.8-1.6.7-2.8.7-5.1-.2-4.1-.7-5.2-1.1-1.6-1.8-1.6ZM138.5,142.8c.6,0,1.2,0,1.6.2.5.2.9.4,1.2.6.2.2.5.5.6.8.2.4.3.7.3,1.2s-.2.9-.5,1.3-.8.6-1.4.6-1.1-.2-1.5-.5-.6-.8-.6-1.4.1-.9.4-1.2.7-.6,1.2-.7c0-.1-.2-.2-.3-.3-.2,0-.4-.1-.6-.1s-.6,0-.9.2-.4.3-.6.5c-.2.3-.3.7-.4,1.2,0,.5-.1,1.3-.1,2.3v2.4h2.9v.5h-2.9v10.5c0,.9.2,1.5.7,1.7.4.3,1.1.4,1.8.4v.6h-8v-.6c.6,0,1.1-.1,1.3-.4.3-.3.4-.8.4-1.5v-10.7h-1.8v-.5h1.8c0-1.1,0-1.9.2-2.6s.3-1.3.5-1.8.6-.9,1-1.3c.4-.4.9-.7,1.6-.9s1.3-.4,2.1-.4h0Z"/>
      <g>
        <path class="st0" d="M81.5,84c1.9,0,3.5.3,4.7.8,1.2.6,2.3,1.2,3.3,2,.6.4,1,.5,1.3.2s.5-1.1.6-2.4h1v10.5h-1c0-1.3-.3-2.5-.6-3.4-.2-.9-.6-1.8-1-2.5s-1-1.4-1.7-2c-.7-.7-1.6-1.3-2.5-1.6s-2-.5-3-.5c-1.6,0-2.9.4-4,1.2-1.1.8-2,2-2.7,3.4s-1.2,3-1.5,4.8-.5,3.6-.5,5.6.2,3.8.5,5.6c.3,1.8.9,3.4,1.6,4.8s1.6,2.5,2.8,3.3c1.1.8,2.5,1.2,4,1.2s1.9-.2,2.9-.5c1-.4,1.8-.9,2.5-1.6,1.1-.9,1.9-2,2.3-3.2.4-1.3.7-3,.9-5.2h1v11h-1c0-1.2-.3-2-.6-2.4-.3-.3-.7-.3-1.4,0-1.1.8-2.2,1.4-3.4,2s-2.8.8-4.6.8c-3.1,0-5.8-.6-8.1-1.9-2.3-1.2-4.1-3.1-5.4-5.4-1.3-2.4-1.9-5.2-1.9-8.5s.7-6.1,2-8.5,3.1-4.3,5.4-5.7c2.3-1.4,5-2,8-2h0Z"/>
        <path class="st0" d="M107.2,92.4c2.1,0,4,.4,5.6,1.2,1.6.8,2.8,2,3.8,3.8.9,1.7,1.4,4.1,1.4,6.9s-.5,5.2-1.4,6.9c-.9,1.7-2.1,3-3.8,3.8-1.6.8-3.5,1.2-5.6,1.2s-3.9-.4-5.5-1.2-2.9-2-3.8-3.8c-.9-1.7-1.4-4-1.4-6.9s.5-5.2,1.4-6.9c.9-1.7,2.2-3,3.8-3.8s3.4-1.2,5.5-1.2ZM107.2,93.2c-1.2,0-2.1.9-2.9,2.6s-1.2,4.5-1.2,8.4.4,6.7,1.2,8.4,1.8,2.6,2.9,2.6,2.2-.9,2.9-2.6c.8-1.7,1.2-4.5,1.2-8.4s-.4-6.7-1.2-8.4c-.8-1.7-1.8-2.6-2.9-2.6Z"/>
        <path class="st0" d="M133.5,83.2c1.6,0,3,.4,4.3,1.1,1.2.7,2.1,1.8,2.5,3.2l-.8.4c-.3-1.1-.9-2-1.9-2.7s-2.1-1-3.4-1-2.6.5-3.3,1.4-1,2.4-1,4.4v3.1h5.8v.9h-5.8v17.6c0,1.2.2,2,.6,2.5s1.1.7,2.2.7v.9h-12.1v-.9c1.1,0,1.9-.2,2.4-.7.5-.4.7-1.3.7-2.5v-17.6h-3.2v-.9h3.2c0-1.6.2-3,.7-4.2.5-1.3,1.2-2.3,2.1-3.2.8-.7,1.8-1.3,3-1.8s2.6-.7,4.1-.7c0,0-.1,0-.1,0ZM146.5,81.4c1,0,1.9,0,2.7.4s1.4.6,2,1c.4.3.8.8,1.1,1.3.3.6.4,1.2.4,1.9s-.3,1.5-.9,2.1c-.6.6-1.3.9-2.2.9s-1.8-.3-2.4-.8-.9-1.3-.9-2.3.2-1.4.7-2,1.1-1,1.9-1.2c0-.2-.3-.3-.5-.4-.3,0-.6-.2-1-.2s-1,0-1.4.3c-.4.2-.7.5-1,.8-.3.4-.5,1.1-.6,1.9s-.2,2.1-.2,3.8v4h4.7v.9h-4.7v17.1c0,1.4.4,2.4,1.1,2.9.7.5,1.7.7,3,.7v.9h-13.2v-.9c1,0,1.7-.2,2.2-.7.4-.4.6-1.3.6-2.5v-17.6h-3v-.9h3c0-1.7,0-3.1.3-4.3.2-1.1.5-2.1.8-2.9.4-.8.9-1.5,1.6-2.2.6-.6,1.4-1.1,2.5-1.5s2.2-.6,3.5-.6h-.1Z"/>
        <path class="st0" d="M160.8,92.4c2.6,0,4.6.8,6,2.3s2.2,4,2.2,7.4h-14.3v-.8h8.8c0-1.4,0-2.7-.3-3.9s-.5-2.2-1-2.9-1-1.1-1.7-1.1-1.9.6-2.6,1.9c-.7,1.3-1.1,3.4-1.3,6.4v.3c.1.4,0,.7,0,1.1v1.2c0,2,.3,3.6.8,4.9.6,1.3,1.3,2.2,2.2,2.7.9.6,1.8.8,2.7.8s1.2,0,1.9-.3,1.3-.5,2-1,1.3-1.2,1.9-2.2l.8.3c-.4,1.1-.9,2.2-1.7,3.2s-1.7,1.9-2.9,2.6-2.6,1-4.2,1-3.7-.4-5.2-1.3-2.7-2.1-3.5-3.8c-.9-1.7-1.3-3.9-1.3-6.5s.5-4.9,1.4-6.8c.9-1.8,2.2-3.1,3.8-4s3.4-1.3,5.5-1.3h0v-.2h0Z"/>
        <path class="st0" d="M182.7,92.4c2.6,0,4.6.8,6,2.3s2.2,4,2.2,7.4h-14.3v-.8h8.8c0-1.4,0-2.7-.3-3.9s-.5-2.2-1-2.9-1-1.1-1.7-1.1-1.9.6-2.6,1.9c-.7,1.3-1.1,3.4-1.3,6.4v.3c.1.4,0,.7,0,1.1v1.2c0,2,.3,3.6.8,4.9.6,1.3,1.3,2.2,2.2,2.7.9.6,1.8.8,2.7.8s1.2,0,1.9-.3,1.3-.5,2-1,1.3-1.2,1.9-2.2l.8.3c-.4,1.1-.9,2.2-1.7,3.2s-1.7,1.9-2.9,2.6-2.6,1-4.2,1-3.7-.4-5.2-1.3-2.7-2.1-3.5-3.8c-.9-1.7-1.3-3.9-1.3-6.5s.5-4.9,1.4-6.8c.9-1.8,2.2-3.1,3.8-4s3.4-1.3,5.5-1.3h0v-.2h0Z"/>
      </g>
    </g>
  </g>
</svg>